<svg width="40" height="40" viewBox="0 0 40 40" fill="none" xmlns="http://www.w3.org/2000/svg">
<rect width="40" height="40" fill="white"/>
<path d="M21.9267 16.0285H18.1343C17.2992 16.0285 17.1518 16.0855 16.7294 16.7886C16.2525 17.6698 15.5141 18.3931 14.609 18.8654C13.7039 19.3378 12.6734 19.5377 11.65 19.4394C10.9283 19.4369 10.2141 19.2982 9.54749 19.0309C8.89717 18.7545 8.30705 18.3611 7.80851 17.8717C7.30543 17.3696 6.91126 16.7752 6.64919 16.1235C6.37215 15.473 6.23509 14.7747 6.24637 14.0713V13.7292C6.27007 12.5306 6.7008 11.3728 7.47217 10.4343C8.24354 9.49577 9.31271 8.8287 10.5148 8.5359C11.717 8.2431 12.9853 8.34083 14.1244 8.81403C15.2634 9.28722 16.2098 10.1096 16.8178 11.1544C17.2304 11.8575 17.2992 11.772 18.1343 11.772H21.9168" stroke="#06263D" stroke-miterlimit="10"/>
<path d="M21.9464 15.9715C21.799 16.7031 19.5884 17.3777 19.1267 17.9382C18.5525 18.1705 18.056 18.5519 17.6923 19.0404C16.973 19.8607 16.0654 20.507 15.0419 20.9277C14.0183 21.3483 12.9073 21.5317 11.7974 21.4632C9.73777 21.466 7.75641 20.7002 6.26608 19.3254C5.51995 18.6477 4.92486 17.8297 4.51727 16.9216C4.10045 16.0252 3.88289 15.0541 3.87866 14.0713V13.6342C3.9273 12.2101 4.40769 10.8312 5.26012 9.66903C6.11255 8.50682 7.29941 7.61255 8.67314 7.09739C10.0364 6.58848 11.517 6.44727 12.9567 6.68883C14.4628 6.89365 15.8736 7.52131 17.0144 8.49406C17.4691 8.95304 18.0321 9.29861 18.6551 9.50119C19.3428 10.1378 21.6909 10.9644 21.8874 11.886" stroke="#06263D" stroke-miterlimit="10"/>
<path d="M21.9562 15.867C21.1014 20.1805 17.2698 23.4679 11.8662 23.4679C10.5484 23.5008 9.23695 23.2819 8.00683 22.8238C6.77672 22.3657 5.65214 21.6774 4.69752 20.7983C3.74289 19.9193 2.97698 18.8667 2.44365 17.701C1.91032 16.5352 1.62006 15.2792 1.58948 14.0047C1.58948 8.8076 5.8436 4.57007 11.8662 4.57007C17.368 4.57007 21.0523 7.75297 21.9267 12" stroke="#06263D" stroke-miterlimit="10"/>
<path d="M17.0929 16.0285H20.8754C21.7105 16.0285 21.8579 16.0855 22.2804 16.7886C22.7573 17.6698 23.4957 18.3931 24.4008 18.8654C25.3059 19.3378 26.3363 19.5377 27.3598 19.4394C28.0909 19.4463 28.816 19.3101 29.4913 19.0391C30.1667 18.7681 30.7784 18.3677 31.2897 17.8622C31.7975 17.3655 32.1953 16.7739 32.4588 16.1235C32.7111 15.4679 32.8247 14.7701 32.7928 14.0713V13.7292C32.7691 12.5306 32.3384 11.3728 31.567 10.4343C30.7957 9.49577 29.7265 8.8287 28.5244 8.5359C27.3222 8.2431 26.0539 8.34083 24.9149 8.81403C23.7758 9.28722 22.8294 10.1096 22.2214 11.1544C21.8088 11.8575 21.74 11.772 20.9049 11.772H17.1224" stroke="#F05251" stroke-miterlimit="10"/>
<path d="M17.0635 15.9715C17.2108 16.7031 19.4214 17.3777 19.8832 17.9382C20.4559 18.1685 20.9498 18.5505 21.3078 19.0404C22.0285 19.859 22.9364 20.504 23.9595 20.9245C24.9827 21.3451 26.093 21.5295 27.2026 21.4632C28.2112 21.4596 29.2104 21.276 30.15 20.9216C31.1037 20.5552 31.9746 20.0131 32.7143 19.3254C33.4723 18.6493 34.0806 17.8316 34.5024 16.9216C34.899 16.0203 35.1028 15.0508 35.1017 14.0713C35.1017 13.9953 35.1017 13.7482 35.1017 13.6722C35.0531 12.2481 34.5727 10.8692 33.7203 9.70703C32.8678 8.54483 31.681 7.65055 30.3072 7.13539C28.9462 6.63145 27.4702 6.49035 26.0335 6.72684C24.5263 6.92783 23.1143 7.55598 21.9758 8.53207C21.5186 8.99264 20.952 9.33835 20.3253 9.53919C19.6474 10.1758 17.2894 11.0024 17.1028 11.924" stroke="#F05251" stroke-miterlimit="10"/>
<path d="M17.0339 15.867C17.9083 20.1805 21.7203 23.4679 27.1338 23.4679C28.4515 23.5008 29.763 23.2819 30.9931 22.8238C32.2232 22.3657 33.3478 21.6774 34.3024 20.7983C35.257 19.9193 36.023 18.8667 36.5563 17.701C37.0896 16.5352 37.3799 15.2792 37.4105 14.0047C37.4105 8.8076 33.1563 4.57007 27.1338 4.57007C21.6319 4.57007 17.9378 7.75297 17.0634 12" stroke="#F05251" stroke-miterlimit="10"/>
<path d="M6.13916 31.77H4.81641C4.69629 31.4712 4.50879 31.2266 4.25391 31.0361C3.99902 30.8457 3.68848 30.7505 3.32227 30.7505C2.83594 30.7505 2.44043 30.9072 2.13574 31.2207C1.83398 31.5312 1.68311 31.9209 1.68311 32.3896C1.68311 32.8584 1.83398 33.2495 2.13574 33.563C2.44043 33.8735 2.83594 34.0288 3.32227 34.0288C3.68848 34.0288 3.99902 33.9351 4.25391 33.7476C4.50879 33.5571 4.69629 33.311 4.81641 33.0093H6.13916C6.01318 33.6685 5.69971 34.1914 5.19873 34.5781C4.69775 34.9619 4.07227 35.1538 3.32227 35.1538C2.46387 35.1538 1.75488 34.8916 1.19531 34.3672C0.638672 33.8398 0.360352 33.1807 0.360352 32.3896C0.360352 31.5986 0.638672 30.9409 1.19531 30.4165C1.75488 29.8892 2.46387 29.6255 3.32227 29.6255C4.07227 29.6255 4.69629 29.8188 5.19434 30.2056C5.69238 30.5894 6.00732 31.1108 6.13916 31.77Z" fill="#04263D"/>
<path d="M6.94775 35V29.7881H8.22656V30.5088H8.24414C8.58691 29.9258 9.02783 29.6343 9.56689 29.6343H9.69434V30.9307H9.37793C9.07324 30.9307 8.81104 31.0347 8.59131 31.2427C8.37158 31.4507 8.25 31.707 8.22656 32.0117V35H6.94775Z" fill="#04263D"/>
<path d="M15.7148 32.3896C15.7148 32.5566 15.6914 32.7456 15.6445 32.9565H11.439C11.5122 33.2554 11.6851 33.5117 11.9575 33.7256C12.23 33.9395 12.5435 34.0464 12.8979 34.0464C13.1558 34.0464 13.3857 33.9878 13.5879 33.8706C13.793 33.7534 13.9526 33.6084 14.0669 33.4355H15.4556C15.271 33.957 14.9443 34.3745 14.4756 34.688C14.0068 34.9985 13.481 35.1538 12.8979 35.1538C12.1128 35.1538 11.4448 34.8887 10.894 34.3584C10.3462 33.8252 10.0723 33.1689 10.0723 32.3896C10.0723 31.6104 10.3477 30.957 10.8984 30.4297C11.4521 29.8994 12.1245 29.6343 12.9155 29.6343C13.689 29.6343 14.3481 29.9023 14.8931 30.4385C15.4409 30.9717 15.7148 31.6221 15.7148 32.3896ZM11.4565 31.8843H14.3481C14.2808 31.5532 14.1196 31.2764 13.8647 31.0537C13.6099 30.8281 13.2935 30.7153 12.9155 30.7153C12.5435 30.7153 12.2241 30.8281 11.9575 31.0537C11.6909 31.2764 11.5239 31.5532 11.4565 31.8843Z" fill="#04263D"/>
<path d="M20.7686 32.3896C20.7686 31.9502 20.6133 31.5737 20.3027 31.2603C19.9951 30.9468 19.6201 30.79 19.1777 30.79C18.7383 30.79 18.3618 30.9482 18.0483 31.2646C17.7378 31.5781 17.5825 31.9531 17.5825 32.3896C17.5825 32.835 17.7378 33.2158 18.0483 33.5322C18.3618 33.8457 18.7383 34.0024 19.1777 34.0024C19.623 34.0024 19.9995 33.8457 20.3071 33.5322C20.6147 33.2158 20.7686 32.835 20.7686 32.3896ZM20.7686 35V34.165H20.751C20.584 34.4404 20.3525 34.6748 20.0566 34.8682C19.7637 35.0586 19.4165 35.1538 19.0151 35.1538C18.2476 35.1538 17.5942 34.8901 17.0552 34.3628C16.519 33.8325 16.251 33.1748 16.251 32.3896C16.251 31.6104 16.519 30.957 17.0552 30.4297C17.5942 29.8994 18.2476 29.6343 19.0151 29.6343C19.7241 29.6343 20.3027 29.9375 20.751 30.5439H20.7686V29.7881H22.0474V35H20.7686Z" fill="#04263D"/>
<path d="M23.3262 30.8164H22.856V29.7881H23.3262V28.6104H24.605V29.7881H25.4971V30.8164H24.605V33.5498C24.605 33.6406 24.6343 33.7168 24.6929 33.7783C24.7544 33.8369 24.8262 33.8662 24.9082 33.8662H25.4971V35H24.9082C24.4336 35 24.0513 34.8608 23.7612 34.5825C23.4712 34.3042 23.3262 33.9307 23.3262 33.4619V30.8164Z" fill="#04263D"/>
<path d="M31.5703 32.3896C31.5703 32.5566 31.5469 32.7456 31.5 32.9565H27.2944C27.3677 33.2554 27.5405 33.5117 27.813 33.7256C28.0854 33.9395 28.3989 34.0464 28.7534 34.0464C29.0112 34.0464 29.2412 33.9878 29.4434 33.8706C29.6484 33.7534 29.8081 33.6084 29.9224 33.4355H31.311C31.1265 33.957 30.7998 34.3745 30.3311 34.688C29.8623 34.9985 29.3364 35.1538 28.7534 35.1538C27.9683 35.1538 27.3003 34.8887 26.7495 34.3584C26.2017 33.8252 25.9277 33.1689 25.9277 32.3896C25.9277 31.6104 26.2031 30.957 26.7539 30.4297C27.3076 29.8994 27.98 29.6343 28.771 29.6343C29.5444 29.6343 30.2036 29.9023 30.7485 30.4385C31.2964 30.9717 31.5703 31.6221 31.5703 32.3896ZM27.312 31.8843H30.2036C30.1362 31.5532 29.9751 31.2764 29.7202 31.0537C29.4653 30.8281 29.1489 30.7153 28.771 30.7153C28.3989 30.7153 28.0796 30.8281 27.813 31.0537C27.5464 31.2764 27.3794 31.5532 27.312 31.8843Z" fill="#04263D"/>
<path d="M32.4712 35V28.25H33.75V35H32.4712Z" fill="#04263D"/>
<path d="M39.687 29.7881L37.0767 36.5381H35.7627L36.3999 34.8813L34.4224 29.7881H35.7451L37.0503 33.2642H37.0679L38.3643 29.7881H39.687Z" fill="#04263D"/>
</svg>
